{
	"asset":{
		"generator":"Khronos glTF Blender I/O v4.2.28",
		"version":"2.0"
	},
	"scene":0,
	"scenes":[
		{
			"name":"Scene",
			"nodes":[
				0
			]
		}
	],
	"nodes":[
		{
			"mesh":0,
			"name":"Frame.003"
		}
	],
	"materials":[
		{
			"doubleSided":true,
			"emissiveFactor":[
				0.49999991059303284,
				0.49999991059303284,
				0.49999991059303284
			],
			"name":"White",
			"pbrMetallicRoughness":{
				"metallicFactor":0,
				"roughnessFactor":0.013636350631713867
			}
		},
		{
			"doubleSided":true,
			"name":"Blue.001",
			"pbrMetallicRoughness":{
				"baseColorFactor":[
					0,
					0.1356274038553238,
					0.2461835891008377,
					1
				],
				"metallicFactor":0,
				"roughnessFactor":0.19090910255908966
			}
		}
	],
	"meshes":[
		{
			"name":"Mesh.019",
			"primitives":[
				{
					"attributes":{
						"POSITION":0,
						"NORMAL":1,
						"TEXCOORD_0":2
					},
					"indices":3,
					"material":0
				},
				{
					"attributes":{
						"POSITION":4,
						"NORMAL":5,
						"TEXCOORD_0":6
					},
					"indices":7,
					"material":1
				}
			]
		}
	],
	"accessors":[
		{
			"bufferView":0,
			"componentType":5126,
			"count":215032,
			"max":[
				0.6219958662986755,
				0.6219959259033203,
				0.020758137106895447
			],
			"min":[
				-0.6219958662986755,
				-0.6219959259033203,
				-0.11079910397529602
			],
			"type":"VEC3"
		},
		{
			"bufferView":1,
			"componentType":5126,
			"count":215032,
			"type":"VEC3"
		},
		{
			"bufferView":2,
			"componentType":5126,
			"count":215032,
			"type":"VEC2"
		},
		{
			"bufferView":3,
			"componentType":5125,
			"count":411798,
			"type":"SCALAR"
		},
		{
			"bufferView":4,
			"componentType":5126,
			"count":761,
			"max":[
				0.5954822897911072,
				0.5954824090003967,
				0.01900077983736992
			],
			"min":[
				-0.5954822301864624,
				-0.5954822301864624,
				-0.041844893246889114
			],
			"type":"VEC3"
		},
		{
			"bufferView":5,
			"componentType":5126,
			"count":761,
			"type":"VEC3"
		},
		{
			"bufferView":6,
			"componentType":5126,
			"count":761,
			"type":"VEC2"
		},
		{
			"bufferView":7,
			"componentType":5123,
			"count":4320,
			"type":"SCALAR"
		}
	],
	"bufferViews":[
		{
			"buffer":0,
			"byteLength":2580384,
			"byteOffset":0,
			"target":34962
		},
		{
			"buffer":0,
			"byteLength":2580384,
			"byteOffset":2580384,
			"target":34962
		},
		{
			"buffer":0,
			"byteLength":1720256,
			"byteOffset":5160768,
			"target":34962
		},
		{
			"buffer":0,
			"byteLength":1647192,
			"byteOffset":6881024,
			"target":34963
		},
		{
			"buffer":0,
			"byteLength":9132,
			"byteOffset":8528216,
			"target":34962
		},
		{
			"buffer":0,
			"byteLength":9132,
			"byteOffset":8537348,
			"target":34962
		},
		{
			"buffer":0,
			"byteLength":6088,
			"byteOffset":8546480,
			"target":34962
		},
		{
			"buffer":0,
			"byteLength":8640,
			"byteOffset":8552568,
			"target":34963
		}
	],
	"buffers":[
		{
			"byteLength":8561208,
			"uri":"Elsterkind3d.bin"
		}
	]
}
